<svg width="27" height="27" viewBox="0 0 27 27" fill="none" xmlns="http://www.w3.org/2000/svg">
<g filter="url(#filter0_d_73_90)">
<path d="M8.29834 23.1997V6.3752C8.29834 3.71889 17.7068 3.71847 17.7068 6.3752V23.1997L13.0026 17.0355L8.29834 23.1997Z" stroke="#CF021A" shape-rendering="crispEdges"/>
</g>
<circle cx="13.4303" cy="13.7912" r="12.8297" fill="#CF021A"/>
<rect x="6.5" y="5.83301" width="13.7225" height="16.667" rx="1.5" stroke="white"/>
<line x1="8.05957" y1="8.95178" x2="16.9837" y2="8.95178" stroke="white"/>
<line x1="7.96289" y1="12.1942" x2="18.7594" y2="12.1942" stroke="white"/>
<line x1="7.96289" y1="15.1387" x2="18.7594" y2="15.1387" stroke="white"/>
<line x1="7.96289" y1="18.0831" x2="18.7594" y2="18.0831" stroke="white"/>
<g filter="url(#filter1_d_73_90)">
<path d="M17 13V5.84707C17 4.71773 21 4.71756 21 5.84707V13L19.1818 11.1176L17 13Z" fill="#CF021A"/>
<path d="M17 13V5.84707C17 4.71773 21 4.71756 21 5.84707V13L19.1818 11.1176L17 13Z" stroke="white"/>
</g>
<defs>
<filter id="filter0_d_73_90" x="7.79834" y="3.88281" width="10.4082" height="20.7961" filterUnits="userSpaceOnUse" color-interpolation-filters="sRGB">
<feFlood flood-opacity="0" result="BackgroundImageFix"/>
<feColorMatrix in="SourceAlpha" type="matrix" values="0 0 0 0 0 0 0 0 0 0 0 0 0 0 0 0 0 0 127 0" result="hardAlpha"/>
<feOffset/>
<feComposite in2="hardAlpha" operator="out"/>
<feColorMatrix type="matrix" values="0 0 0 0 1 0 0 0 0 1 0 0 0 0 1 0 0 0 1 0"/>
<feBlend mode="normal" in2="BackgroundImageFix" result="effect1_dropShadow_73_90"/>
<feBlend mode="normal" in="SourceGraphic" in2="effect1_dropShadow_73_90" result="shape"/>
</filter>
<filter id="filter1_d_73_90" x="16.5" y="4.5" width="5" height="9.7373" filterUnits="userSpaceOnUse" color-interpolation-filters="sRGB">
<feFlood flood-opacity="0" result="BackgroundImageFix"/>
<feColorMatrix in="SourceAlpha" type="matrix" values="0 0 0 0 0 0 0 0 0 0 0 0 0 0 0 0 0 0 127 0" result="hardAlpha"/>
<feOffset/>
<feComposite in2="hardAlpha" operator="out"/>
<feColorMatrix type="matrix" values="0 0 0 0 1 0 0 0 0 1 0 0 0 0 1 0 0 0 1 0"/>
<feBlend mode="normal" in2="BackgroundImageFix" result="effect1_dropShadow_73_90"/>
<feBlend mode="normal" in="SourceGraphic" in2="effect1_dropShadow_73_90" result="shape"/>
</filter>
</defs>
</svg>
