<svg width="29" height="29" viewBox="0 0 29 29" fill="none" xmlns="http://www.w3.org/2000/svg">
<ellipse cx="14.4301" cy="14.2188" rx="13.685" ry="14.1126" fill="white"/>
<g filter="url(#filter0_d_73_90)">
<path d="M9.29834 23.1997V6.3752C9.29834 3.71889 18.7068 3.71847 18.7068 6.3752V23.1997L14.0026 17.0355L9.29834 23.1997Z" stroke="#CF021A" shape-rendering="crispEdges"/>
</g>
<circle cx="14.4303" cy="13.7912" r="12.8297" fill="white"/>
<rect x="7.5" y="5.85156" width="14.5404" height="17.6485" rx="1.5" stroke="#CF021A"/>
<line x1="9.17383" y1="9.19922" x2="18.5938" y2="9.19922" stroke="#CF021A"/>
<line x1="9.07178" y1="12.6218" x2="20.4681" y2="12.6218" stroke="#CF021A"/>
<line x1="9.07178" y1="15.7299" x2="20.4681" y2="15.7299" stroke="#CF021A"/>
<line x1="9.07178" y1="18.8379" x2="20.4681" y2="18.8379" stroke="#CF021A"/>
<g filter="url(#filter1_d_73_90)">
<path d="M18.9844 13V5.84707C18.9844 4.71773 22.9844 4.71756 22.9844 5.84707V13L21.1662 11.1176L18.9844 13Z" fill="white"/>
<path d="M18.9844 13V5.84707C18.9844 4.71773 22.9844 4.71756 22.9844 5.84707V13L21.1662 11.1176L18.9844 13Z" stroke="#CF021A"/>
</g>
<defs>
<filter id="filter0_d_73_90" x="8.79834" y="3.88281" width="10.4082" height="20.7961" filterUnits="userSpaceOnUse" color-interpolation-filters="sRGB">
<feFlood flood-opacity="0" result="BackgroundImageFix"/>
<feColorMatrix in="SourceAlpha" type="matrix" values="0 0 0 0 0 0 0 0 0 0 0 0 0 0 0 0 0 0 127 0" result="hardAlpha"/>
<feOffset/>
<feComposite in2="hardAlpha" operator="out"/>
<feColorMatrix type="matrix" values="0 0 0 0 1 0 0 0 0 1 0 0 0 0 1 0 0 0 1 0"/>
<feBlend mode="normal" in2="BackgroundImageFix" result="effect1_dropShadow_73_90"/>
<feBlend mode="normal" in="SourceGraphic" in2="effect1_dropShadow_73_90" result="shape"/>
</filter>
<filter id="filter1_d_73_90" x="18.4844" y="4.5" width="5" height="9.7373" filterUnits="userSpaceOnUse" color-interpolation-filters="sRGB">
<feFlood flood-opacity="0" result="BackgroundImageFix"/>
<feColorMatrix in="SourceAlpha" type="matrix" values="0 0 0 0 0 0 0 0 0 0 0 0 0 0 0 0 0 0 127 0" result="hardAlpha"/>
<feOffset/>
<feComposite in2="hardAlpha" operator="out"/>
<feColorMatrix type="matrix" values="0 0 0 0 1 0 0 0 0 1 0 0 0 0 1 0 0 0 1 0"/>
<feBlend mode="normal" in2="BackgroundImageFix" result="effect1_dropShadow_73_90"/>
<feBlend mode="normal" in="SourceGraphic" in2="effect1_dropShadow_73_90" result="shape"/>
</filter>
</defs>
</svg>
