<svg width="788" height="174" viewBox="0 0 788 174" fill="none" xmlns="http://www.w3.org/2000/svg">
<circle cx="66.0398" cy="64.9204" r="60.4432" fill="#FF9999"/>
<circle cx="60.4432" cy="60.4432" r="59.8835" stroke="black" stroke-width="1.11932"/>
<path fill-rule="evenodd" clip-rule="evenodd" d="M68.1035 32.5651C68.1035 31.4241 67.6502 30.3297 66.8434 29.5229C66.0365 28.716 64.9422 28.2628 63.8011 28.2628C62.6601 28.2628 61.5658 28.716 60.7589 29.5229C59.952 30.3297 59.4988 31.4241 59.4988 32.5651V58.3794H33.6845C32.5434 58.3794 31.4491 58.8327 30.6422 59.6395C29.8354 60.4464 29.3821 61.5407 29.3821 62.6818C29.3821 63.8229 29.8354 64.9172 30.6422 65.724C31.4491 66.5309 32.5434 66.9842 33.6845 66.9842H59.4988V92.7984C59.4988 93.9395 59.952 95.0338 60.7589 95.8407C61.5658 96.6475 62.6601 97.1008 63.8011 97.1008C64.9422 97.1008 66.0365 96.6475 66.8434 95.8407C67.6502 95.0338 68.1035 93.9395 68.1035 92.7984V66.9842H93.9178C95.0589 66.9842 96.1532 66.5309 96.96 65.724C97.7669 64.9172 98.2202 63.8229 98.2202 62.6818C98.2202 61.5407 97.7669 60.4464 96.96 59.6395C96.1532 58.8327 95.0589 58.3794 93.9178 58.3794H68.1035V32.5651Z" fill="white"/>
<circle cx="267.517" cy="64.9204" r="60.4432" fill="#FF9999"/>
<circle cx="261.92" cy="60.4432" r="59.8835" stroke="black" stroke-width="1.11932"/>
<path d="M252.686 78.6292L239.416 65.3588C238.701 64.6437 237.731 64.242 236.719 64.242C235.708 64.242 234.738 64.6437 234.023 65.3588C233.308 66.0738 232.906 67.0437 232.906 68.0549C232.906 68.5557 233.005 69.0515 233.197 69.5141C233.388 69.9767 233.669 70.397 234.023 70.7511L250.009 86.7368C251.501 88.2283 253.91 88.2283 255.401 86.7368L295.863 46.2753C296.578 45.5603 296.98 44.5904 296.98 43.5792C296.98 42.5679 296.578 41.5981 295.863 40.883C295.148 40.168 294.178 39.7662 293.167 39.7662C292.155 39.7662 291.186 40.168 290.47 40.883L252.686 78.6292Z" fill="white"/>
<circle cx="468.994" cy="64.9204" r="60.4432" fill="#FF9999"/>
<circle cx="463.398" cy="60.4432" r="59.8835" stroke="black" stroke-width="1.11932"/>
<path d="M461.048 34.5729C460.968 33.7753 461.056 32.9697 461.306 32.2082C461.557 31.4466 461.964 30.746 462.502 30.1516C463.039 29.5571 463.696 29.0819 464.429 28.7567C465.161 28.4315 465.954 28.2635 466.756 28.2635C467.557 28.2635 468.35 28.4315 469.083 28.7567C469.816 29.0819 470.472 29.5571 471.01 30.1516C471.548 30.746 471.955 31.4466 472.205 32.2082C472.456 32.9697 472.544 33.7753 472.463 34.5729L470.238 70.9997C470.152 71.8635 469.748 72.6645 469.104 73.2471C468.461 73.8297 467.624 74.1524 466.756 74.1524C465.888 74.1524 465.051 73.8297 464.407 73.2471C463.764 72.6645 463.36 71.8635 463.274 70.9997L461.048 34.5729ZM461.019 85.6278C461.019 84.1064 461.624 82.6473 462.699 81.5715C463.775 80.4957 465.234 79.8913 466.756 79.8913C468.277 79.8913 469.736 80.4957 470.812 81.5715C471.888 82.6473 472.492 84.1064 472.492 85.6278C472.492 87.1492 471.888 88.6083 470.812 89.6842C469.736 90.76 468.277 91.3643 466.756 91.3643C465.234 91.3643 463.775 90.76 462.699 89.6842C461.624 88.6083 461.019 87.1492 461.019 85.6278Z" fill="white"/>
<circle cx="670.472" cy="64.9204" r="60.4432" fill="#FF9999"/>
<circle cx="664.875" cy="60.4432" r="59.8835" stroke="black" stroke-width="1.11932"/>
<path d="M668.233 32.0871V20.6141L652.936 35.9115L668.233 51.2088V39.7358C680.892 39.7358 691.179 50.0233 691.179 62.6818C691.179 66.5444 690.223 70.2158 688.502 73.39L694.085 78.9735C697.184 74.1048 698.829 68.453 698.828 62.6818C698.828 45.7783 685.137 32.0871 668.233 32.0871ZM668.233 85.6279C655.574 85.6279 645.287 75.3404 645.287 62.6818C645.287 58.8193 646.243 55.1479 647.964 51.9737L642.38 46.3902C639.282 51.2589 637.637 56.9107 637.638 62.6818C637.638 79.5854 651.329 93.2765 668.233 93.2765V104.75L683.53 89.4522L668.233 74.1549V85.6279Z" fill="white"/>
<path d="M19.1963 165.079H22.4703V147.226H28.5146V144.484H13.152V147.226H19.1963V165.079ZM30.3228 165.079H33.5688V155.509C34.5203 153.075 36.0313 152.179 37.2626 152.179C37.9062 152.179 38.298 152.263 38.8296 152.431L39.3893 149.633C38.9136 149.409 38.4379 149.297 37.6823 149.297C36.0313 149.297 34.4083 150.472 33.317 152.459H33.233L32.9532 149.689H30.3228V165.079ZM41.7729 165.079H45.0189V149.689H41.7729V165.079ZM43.3959 146.807C44.5712 146.807 45.4107 146.051 45.4107 144.876C45.4107 143.728 44.5712 142.973 43.3959 142.973C42.1926 142.973 41.4091 143.728 41.4091 144.876C41.4091 146.051 42.1926 146.807 43.3959 146.807ZM55.1231 171.991C60.0481 171.991 63.1822 169.585 63.1822 166.619C63.1822 163.988 61.2794 162.869 57.6416 162.869H54.7873C52.8565 162.869 52.2129 162.281 52.2129 161.386C52.2129 160.63 52.5767 160.182 53.0524 159.763C53.752 160.071 54.5355 160.21 55.2071 160.21C58.4531 160.21 60.9996 158.308 60.9996 154.922C60.9996 153.746 60.5798 152.739 59.9922 152.123H62.9024V149.689H57.4737C56.8861 149.465 56.1025 149.297 55.2071 149.297C52.045 149.297 49.2467 151.34 49.2467 154.838C49.2467 156.657 50.2541 158.14 51.2895 158.923V159.035C50.422 159.651 49.5825 160.686 49.5825 161.889C49.5825 163.149 50.1702 163.96 50.9817 164.464V164.604C49.5545 165.443 48.743 166.647 48.743 167.962C48.743 170.62 51.4294 171.991 55.1231 171.991ZM55.2071 158.14C53.64 158.14 52.3248 156.88 52.3248 154.838C52.3248 152.767 53.6121 151.592 55.2071 151.592C56.8301 151.592 58.1173 152.767 58.1173 154.838C58.1173 156.88 56.8021 158.14 55.2071 158.14ZM55.5988 169.865C53.0524 169.865 51.4854 168.969 51.4854 167.486C51.4854 166.702 51.8771 165.919 52.8006 165.219C53.4442 165.387 54.1158 165.443 54.8433 165.443H57.1659C59.0408 165.443 60.0481 165.863 60.0481 167.15C60.0481 168.549 58.2852 169.865 55.5988 169.865ZM71.3008 171.991C76.2258 171.991 79.3599 169.585 79.3599 166.619C79.3599 163.988 77.457 162.869 73.8193 162.869H70.965C69.0342 162.869 68.3906 162.281 68.3906 161.386C68.3906 160.63 68.7543 160.182 69.23 159.763C69.9296 160.071 70.7131 160.21 71.3847 160.21C74.6308 160.21 77.1772 158.308 77.1772 154.922C77.1772 153.746 76.7575 152.739 76.1698 152.123H79.08V149.689H73.6514C73.0637 149.465 72.2802 149.297 71.3847 149.297C68.2227 149.297 65.4244 151.34 65.4244 154.838C65.4244 156.657 66.4318 158.14 67.4671 158.923V159.035C66.5996 159.651 65.7602 160.686 65.7602 161.889C65.7602 163.149 66.3478 163.96 67.1593 164.464V164.604C65.7322 165.443 64.9207 166.647 64.9207 167.962C64.9207 170.62 67.607 171.991 71.3008 171.991ZM71.3847 158.14C69.8177 158.14 68.5025 156.88 68.5025 154.838C68.5025 152.767 69.7897 151.592 71.3847 151.592C73.0077 151.592 74.295 152.767 74.295 154.838C74.295 156.88 72.9798 158.14 71.3847 158.14ZM71.7765 169.865C69.23 169.865 67.663 168.969 67.663 167.486C67.663 166.702 68.0548 165.919 68.9782 165.219C69.6218 165.387 70.2934 165.443 71.021 165.443H73.3435C75.2184 165.443 76.2258 165.863 76.2258 167.15C76.2258 168.549 74.4629 169.865 71.7765 169.865ZM88.0519 165.471C90.0666 165.471 91.8296 164.8 93.2567 163.848L92.1374 161.777C90.9901 162.505 89.8428 162.925 88.4716 162.925C85.8132 162.925 83.9664 161.19 83.7145 158.252H93.7044C93.7884 157.86 93.8443 157.244 93.8443 156.601C93.8443 152.235 91.6337 149.297 87.5762 149.297C83.9943 149.297 80.5524 152.403 80.5524 157.412C80.5524 162.477 83.8544 165.471 88.0519 165.471ZM83.6585 156.013C83.9943 153.327 85.7013 151.844 87.6321 151.844C89.8708 151.844 91.046 153.355 91.046 156.013H83.6585ZM97.4655 165.079H100.712V155.509C101.663 153.075 103.174 152.179 104.405 152.179C105.049 152.179 105.441 152.263 105.972 152.431L106.532 149.633C106.056 149.409 105.581 149.297 104.825 149.297C103.174 149.297 101.551 150.472 100.46 152.459H100.376L100.096 149.689H97.4655V165.079ZM112.84 165.471C116.617 165.471 118.66 163.373 118.66 160.77C118.66 157.888 116.31 156.908 114.155 156.097C112.448 155.481 110.965 154.978 110.965 153.662C110.965 152.599 111.748 151.76 113.455 151.76C114.715 151.76 115.806 152.347 116.869 153.103L118.38 151.116C117.149 150.137 115.442 149.297 113.399 149.297C109.957 149.297 107.887 151.228 107.887 153.802C107.887 156.433 110.153 157.524 112.224 158.308C113.875 158.923 115.61 159.567 115.61 160.938C115.61 162.113 114.743 163.009 112.924 163.009C111.245 163.009 109.93 162.309 108.558 161.246L107.047 163.345C108.53 164.576 110.713 165.471 112.84 165.471Z" fill="black"/>
<path d="M229.908 165.079H233.182V156.769H236.652C240.905 156.769 244.095 154.782 244.095 150.472C244.095 145.995 240.905 144.484 236.652 144.484H229.908V165.079ZM233.182 154.166V147.114H236.288C239.254 147.114 240.877 147.982 240.877 150.472C240.877 152.935 239.254 154.166 236.288 154.166H233.182ZM241.185 165.079H244.823L238.443 154.026L236.036 155.929L241.185 165.079ZM252.525 165.471C254.652 165.471 256.135 164.38 257.534 162.757H257.618L257.87 165.079H260.528V149.689H257.31V160.378C256.023 162.001 255.044 162.673 253.616 162.673C251.798 162.673 251.014 161.638 251.014 158.979V149.689H247.796V159.371C247.796 163.289 249.251 165.471 252.525 165.471ZM268.563 165.471C269.374 165.471 269.878 165.331 270.298 165.191L269.878 162.757C269.598 162.813 269.486 162.813 269.346 162.813C268.954 162.813 268.591 162.505 268.591 161.638V142.805H265.345V161.47C265.345 163.96 266.212 165.471 268.563 165.471ZM280.115 165.471C282.13 165.471 283.893 164.8 285.32 163.848L284.201 161.777C283.054 162.505 281.906 162.925 280.535 162.925C277.877 162.925 276.03 161.19 275.778 158.252H285.768C285.852 157.86 285.908 157.244 285.908 156.601C285.908 152.235 283.697 149.297 279.64 149.297C276.058 149.297 272.616 152.403 272.616 157.412C272.616 162.477 275.918 165.471 280.115 165.471ZM275.722 156.013C276.058 153.327 277.765 151.844 279.696 151.844C281.934 151.844 283.11 153.355 283.11 156.013H275.722ZM293.727 165.471C297.504 165.471 299.547 163.373 299.547 160.77C299.547 157.888 297.196 156.908 295.042 156.097C293.335 155.481 291.852 154.978 291.852 153.662C291.852 152.599 292.635 151.76 294.342 151.76C295.601 151.76 296.693 152.347 297.756 153.103L299.267 151.116C298.036 150.137 296.329 149.297 294.286 149.297C290.844 149.297 288.774 151.228 288.774 153.802C288.774 156.433 291.04 157.524 293.111 158.308C294.762 158.923 296.497 159.567 296.497 160.938C296.497 162.113 295.629 163.009 293.811 163.009C292.132 163.009 290.816 162.309 289.445 161.246L287.934 163.345C289.417 164.576 291.6 165.471 293.727 165.471Z" fill="black"/>
<path d="M405.641 165.079H408.915V156.237H416.526V153.495H408.915V147.226H417.869V144.484H405.641V165.079ZM427.073 165.471C429.088 165.471 430.851 164.8 432.278 163.848L431.159 161.777C430.011 162.505 428.864 162.925 427.493 162.925C424.834 162.925 422.988 161.19 422.736 158.252H432.726C432.81 157.86 432.865 157.244 432.865 156.601C432.865 152.235 430.655 149.297 426.597 149.297C423.015 149.297 419.574 152.403 419.574 157.412C419.574 162.477 422.876 165.471 427.073 165.471ZM422.68 156.013C423.015 153.327 424.722 151.844 426.653 151.844C428.892 151.844 430.067 153.355 430.067 156.013H422.68ZM442.923 165.471C444.938 165.471 446.7 164.8 448.128 163.848L447.008 161.777C445.861 162.505 444.714 162.925 443.342 162.925C440.684 162.925 438.837 161.19 438.585 158.252H448.575C448.659 157.86 448.715 157.244 448.715 156.601C448.715 152.235 446.505 149.297 442.447 149.297C438.865 149.297 435.423 152.403 435.423 157.412C435.423 162.477 438.725 165.471 442.923 165.471ZM438.529 156.013C438.865 153.327 440.572 151.844 442.503 151.844C444.742 151.844 445.917 153.355 445.917 156.013H438.529ZM457.653 165.471C459.388 165.471 460.983 164.548 462.158 163.373H462.242L462.494 165.079H465.153V142.805H461.907V148.486L462.046 151.032C460.815 149.969 459.668 149.297 457.905 149.297C454.491 149.297 451.329 152.403 451.329 157.412C451.329 162.505 453.791 165.471 457.653 165.471ZM458.437 162.785C456.03 162.785 454.659 160.854 454.659 157.356C454.659 154.054 456.394 151.983 458.549 151.983C459.696 151.983 460.787 152.375 461.907 153.411V160.91C460.815 162.197 459.696 162.785 458.437 162.785ZM477.154 165.471C480.624 165.471 483.786 162.421 483.786 157.132C483.786 152.403 481.575 149.297 477.686 149.297C476.035 149.297 474.412 150.165 473.068 151.312L473.208 148.681V142.805H469.962V165.079H472.509L472.789 163.484H472.901C474.188 164.744 475.755 165.471 477.154 165.471ZM476.538 162.785C475.587 162.785 474.356 162.421 473.208 161.386V153.858C474.468 152.627 475.643 151.983 476.818 151.983C479.393 151.983 480.456 153.97 480.456 157.188C480.456 160.798 478.749 162.785 476.538 162.785ZM490.652 165.471C492.499 165.471 494.15 164.548 495.549 163.345H495.661L495.913 165.079H498.571V155.845C498.571 151.732 496.809 149.297 492.975 149.297C490.512 149.297 488.33 150.332 486.763 151.312L487.966 153.523C489.253 152.683 490.792 151.927 492.415 151.927C494.654 151.927 495.297 153.495 495.325 155.285C488.945 155.985 486.147 157.692 486.147 160.994C486.147 163.708 488.022 165.471 490.652 165.471ZM491.66 162.897C490.288 162.897 489.253 162.281 489.253 160.77C489.253 159.035 490.764 157.888 495.325 157.356V161.106C494.066 162.281 493.003 162.897 491.66 162.897ZM509.378 165.471C511.169 165.471 512.988 164.8 514.387 163.568L513.072 161.414C512.149 162.197 511.001 162.813 509.714 162.813C507.14 162.813 505.377 160.658 505.377 157.412C505.377 154.138 507.196 151.983 509.826 151.983C510.861 151.983 511.729 152.431 512.568 153.159L514.135 151.088C513.044 150.081 511.617 149.297 509.658 149.297C505.601 149.297 502.047 152.263 502.047 157.412C502.047 162.505 505.237 165.471 509.378 165.471ZM517.566 165.079H520.756V161.106L523.303 158.112L527.472 165.079H530.998L525.206 155.957L530.41 149.689H526.829L520.868 157.132H520.756V142.805H517.566V165.079Z" fill="black"/>
<path d="M578.016 165.079H590.021V162.337H581.29V144.484H578.016V165.079ZM599.032 165.471C602.838 165.471 606.28 162.505 606.28 157.412C606.28 152.263 602.838 149.297 599.032 149.297C595.199 149.297 591.785 152.263 591.785 157.412C591.785 162.505 595.199 165.471 599.032 165.471ZM599.032 162.813C596.598 162.813 595.115 160.658 595.115 157.412C595.115 154.138 596.598 151.983 599.032 151.983C601.439 151.983 602.978 154.138 602.978 157.412C602.978 160.658 601.439 162.813 599.032 162.813ZM616.248 165.471C620.054 165.471 623.496 162.505 623.496 157.412C623.496 152.263 620.054 149.297 616.248 149.297C612.415 149.297 609.001 152.263 609.001 157.412C609.001 162.505 612.415 165.471 616.248 165.471ZM616.248 162.813C613.814 162.813 612.331 160.658 612.331 157.412C612.331 154.138 613.814 151.983 616.248 151.983C618.655 151.983 620.194 154.138 620.194 157.412C620.194 160.658 618.655 162.813 616.248 162.813ZM627.28 171.32H630.526V166.339L630.414 163.736C631.701 164.856 633.101 165.471 634.472 165.471C637.942 165.471 641.104 162.421 641.104 157.16C641.104 152.403 638.893 149.297 635.003 149.297C633.268 149.297 631.617 150.249 630.274 151.396H630.19L629.911 149.689H627.28V171.32ZM633.856 162.785C632.905 162.785 631.729 162.421 630.526 161.386V153.858C631.813 152.627 632.961 151.983 634.136 151.983C636.71 151.983 637.774 153.97 637.774 157.188C637.774 160.798 636.067 162.785 633.856 162.785ZM648.912 165.471C652.69 165.471 654.733 163.373 654.733 160.77C654.733 157.888 652.382 156.908 650.227 156.097C648.52 155.481 647.037 154.978 647.037 153.662C647.037 152.599 647.821 151.76 649.528 151.76C650.787 151.76 651.878 152.347 652.942 153.103L654.453 151.116C653.222 150.137 651.515 149.297 649.472 149.297C646.03 149.297 643.959 151.228 643.959 153.802C643.959 156.433 646.226 157.524 648.297 158.308C649.948 158.923 651.683 159.567 651.683 160.938C651.683 162.113 650.815 163.009 648.996 163.009C647.317 163.009 646.002 162.309 644.631 161.246L643.12 163.345C644.603 164.576 646.786 165.471 648.912 165.471ZM669.426 165.471C672.476 165.471 674.827 164.128 676.618 162.113C678.716 159.735 680.143 156.908 681.067 153.802H678.073C677.345 156.573 676.058 158.867 674.407 160.63C673.036 162.029 671.469 162.925 669.818 162.925C667.663 162.925 666.068 161.582 666.068 159.511C666.068 155.229 674.995 153.718 674.995 148.346C674.995 145.855 673.344 144.12 670.629 144.12C667.607 144.12 665.62 146.331 665.62 149.129C665.62 153.439 670.014 159.147 674.715 162.645C676.701 164.072 678.66 165.051 680.451 165.471L681.263 162.813C679.92 162.477 678.325 161.666 676.674 160.518C672.644 157.72 668.335 152.795 668.335 149.101C668.335 147.506 669.286 146.331 670.685 146.331C671.916 146.331 672.448 147.282 672.448 148.402C672.448 152.683 662.962 153.411 662.962 159.707C662.962 162.953 665.452 165.471 669.426 165.471ZM690.768 165.079H693.706V154.922C693.706 153.047 693.454 150.416 693.286 148.542H693.398L695.049 153.299L698.631 163.121H700.646L704.227 153.299L705.906 148.542H706.018C705.85 150.416 705.598 153.047 705.598 154.922V165.079H708.593V144.484H704.843L701.121 154.922C700.673 156.265 700.282 157.664 699.778 159.063H699.666C699.19 157.664 698.771 156.265 698.267 154.922L694.517 144.484H690.768V165.079ZM719.9 165.471C723.706 165.471 727.148 162.505 727.148 157.412C727.148 152.263 723.706 149.297 719.9 149.297C716.066 149.297 712.652 152.263 712.652 157.412C712.652 162.505 716.066 165.471 719.9 165.471ZM719.9 162.813C717.465 162.813 715.982 160.658 715.982 157.412C715.982 154.138 717.465 151.983 719.9 151.983C722.307 151.983 723.846 154.138 723.846 157.412C723.846 160.658 722.307 162.813 719.9 162.813ZM736.249 165.471C737.984 165.471 739.579 164.548 740.754 163.373H740.838L741.09 165.079H743.748V142.805H740.502V148.486L740.642 151.032C739.411 149.969 738.263 149.297 736.5 149.297C733.086 149.297 729.924 152.403 729.924 157.412C729.924 162.505 732.387 165.471 736.249 165.471ZM737.032 162.785C734.626 162.785 733.254 160.854 733.254 157.356C733.254 154.054 734.989 151.983 737.144 151.983C738.291 151.983 739.383 152.375 740.502 153.411V160.91C739.411 162.197 738.291 162.785 737.032 162.785ZM754.994 165.471C757.009 165.471 758.772 164.8 760.199 163.848L759.079 161.777C757.932 162.505 756.785 162.925 755.414 162.925C752.755 162.925 750.908 161.19 750.657 158.252H760.646C760.73 157.86 760.786 157.244 760.786 156.601C760.786 152.235 758.576 149.297 754.518 149.297C750.936 149.297 747.494 152.403 747.494 157.412C747.494 162.477 750.796 165.471 754.994 165.471ZM750.601 156.013C750.936 153.327 752.643 151.844 754.574 151.844C756.813 151.844 757.988 153.355 757.988 156.013H750.601ZM768.605 165.471C772.383 165.471 774.425 163.373 774.425 160.77C774.425 157.888 772.075 156.908 769.92 156.097C768.213 155.481 766.73 154.978 766.73 153.662C766.73 152.599 767.514 151.76 769.221 151.76C770.48 151.76 771.571 152.347 772.634 153.103L774.146 151.116C772.914 150.137 771.207 149.297 769.165 149.297C765.723 149.297 763.652 151.228 763.652 153.802C763.652 156.433 765.919 157.524 767.989 158.308C769.64 158.923 771.375 159.567 771.375 160.938C771.375 162.113 770.508 163.009 768.689 163.009C767.01 163.009 765.695 162.309 764.324 161.246L762.812 163.345C764.296 164.576 766.478 165.471 768.605 165.471Z" fill="black"/>
</svg>
